<svg width="120" height="39" viewBox="0 0 149 39" fill="none" xmlns="http://www.w3.org/2000/svg">
<path d="M13.5235 31.3882C11.2157 31.3882 9.12353 30.8922 7.24706 29.9C5.39216 28.8863 3.92549 27.4951 2.84706 25.7265C1.7902 23.9363 1.26176 21.9196 1.26176 19.6765C1.26176 17.4333 1.7902 15.4275 2.84706 13.6588C3.92549 11.8686 5.39216 10.4775 7.24706 9.48529C9.12353 8.47157 11.2265 7.96471 13.5559 7.96471C15.5186 7.96471 17.2873 8.3098 18.8618 9C20.4578 9.6902 21.7951 10.6824 22.8735 11.9765L19.5088 15.0824C17.9775 13.3137 16.0794 12.4294 13.8147 12.4294C12.4127 12.4294 11.1618 12.7422 10.0618 13.3676C8.96176 13.9716 8.09902 14.8235 7.47353 15.9235C6.86961 17.0235 6.56765 18.2745 6.56765 19.6765C6.56765 21.0784 6.86961 22.3294 7.47353 23.4294C8.09902 24.5294 8.96176 25.3922 10.0618 26.0176C11.1618 26.6216 12.4127 26.9235 13.8147 26.9235C16.0794 26.9235 17.9775 26.0284 19.5088 24.2382L22.8735 27.3441C21.7951 28.6598 20.4578 29.6627 18.8618 30.3529C17.2657 31.0431 15.4863 31.3882 13.5235 31.3882ZM26.057 13.5941H31.1041V31H26.057V13.5941ZM28.5805 11.1676C27.6531 11.1676 26.8982 10.898 26.3158 10.3588C25.7335 9.81961 25.4423 9.15098 25.4423 8.35294C25.4423 7.5549 25.7335 6.88627 26.3158 6.34706C26.8982 5.80784 27.6531 5.53823 28.5805 5.53823C29.508 5.53823 30.2629 5.79706 30.8452 6.31471C31.4276 6.83235 31.7188 7.47941 31.7188 8.25588C31.7188 9.09706 31.4276 9.79804 30.8452 10.3588C30.2629 10.898 29.508 11.1676 28.5805 11.1676ZM47.0146 30.1588C46.5186 30.5255 45.9039 30.8059 45.1705 31C44.4588 31.1725 43.7039 31.2588 42.9058 31.2588C40.8352 31.2588 39.2284 30.7304 38.0852 29.6735C36.9637 28.6167 36.4029 27.0637 36.4029 25.0147V17.8647H33.7176V13.9824H36.4029V9.74412H41.4499V13.9824H45.7852V17.8647H41.4499V24.95C41.4499 25.6833 41.6333 26.2549 41.9999 26.6647C42.3882 27.0529 42.9274 27.2471 43.6176 27.2471C44.4156 27.2471 45.095 27.0314 45.6558 26.6L47.0146 30.1588ZM66.8083 13.5941L58.9466 32.0676C58.1485 34.0735 57.1564 35.4863 55.9701 36.3059C54.8054 37.1255 53.3926 37.5353 51.7318 37.5353C50.826 37.5353 49.9309 37.3951 49.0466 37.1147C48.1622 36.8343 47.4397 36.4461 46.8789 35.95L48.723 32.3588C49.1113 32.7039 49.5534 32.9735 50.0495 33.1676C50.5671 33.3618 51.074 33.4588 51.5701 33.4588C52.2603 33.4588 52.8211 33.2863 53.2524 32.9412C53.6838 32.6176 54.072 32.0676 54.4171 31.2912L54.4818 31.1294L46.9436 13.5941H52.1524L57.0377 25.4029L61.9554 13.5941H66.8083Z" fill="#282F35"/>
<path d="M90.2941 31L90.2618 17.4118L83.5971 28.6059H81.2353L74.6029 17.7029V31H69.6853V8.35294H74.0206L82.4971 22.4265L90.8441 8.35294H95.1471L95.2118 31H90.2941ZM107.25 13.3353C109.946 13.3353 112.016 13.9824 113.461 15.2765C114.906 16.549 115.629 18.4794 115.629 21.0676V31H110.905V28.8324C109.956 30.45 108.188 31.2588 105.6 31.2588C104.262 31.2588 103.098 31.0324 102.105 30.5794C101.135 30.1265 100.391 29.501 99.8731 28.7029C99.3555 27.9049 99.0966 26.999 99.0966 25.9853C99.0966 24.3676 99.7006 23.0951 100.908 22.1676C102.138 21.2402 104.025 20.7765 106.57 20.7765H110.582C110.582 19.6765 110.248 18.8353 109.579 18.2529C108.91 17.649 107.907 17.3471 106.57 17.3471C105.643 17.3471 104.726 17.498 103.82 17.8C102.936 18.0804 102.181 18.4686 101.555 18.9647L99.7437 15.4382C100.693 14.7696 101.825 14.252 103.141 13.8853C104.478 13.5186 105.848 13.3353 107.25 13.3353ZM106.861 27.8618C107.724 27.8618 108.49 27.6676 109.158 27.2794C109.827 26.8696 110.302 26.2765 110.582 25.5V23.7206H107.12C105.05 23.7206 104.014 24.4 104.014 25.7588C104.014 26.4059 104.262 26.9235 104.758 27.3118C105.276 27.6784 105.977 27.8618 106.861 27.8618ZM125.017 15.8912C125.621 15.05 126.43 14.4137 127.444 13.9824C128.479 13.551 129.665 13.3353 131.003 13.3353V17.9941C130.442 17.951 130.064 17.9294 129.87 17.9294C128.425 17.9294 127.293 18.3392 126.473 19.1588C125.654 19.9569 125.244 21.1647 125.244 22.7824V31H120.197V13.5941H125.017V15.8912ZM139.923 31.2588C138.478 31.2588 137.065 31.0863 135.685 30.7412C134.304 30.3745 133.204 29.9216 132.385 29.3824L134.067 25.7588C134.843 26.2549 135.782 26.6647 136.882 26.9882C137.982 27.2902 139.06 27.4412 140.117 27.4412C142.252 27.4412 143.32 26.9127 143.32 25.8559C143.32 25.3598 143.029 25.0039 142.446 24.7882C141.864 24.5725 140.969 24.3892 139.761 24.2382C138.337 24.0225 137.162 23.7745 136.235 23.4941C135.307 23.2137 134.498 22.7176 133.808 22.0059C133.139 21.2941 132.805 20.2804 132.805 18.9647C132.805 17.8647 133.118 16.8941 133.743 16.0529C134.39 15.1902 135.318 14.5216 136.526 14.0471C137.755 13.5725 139.2 13.3353 140.861 13.3353C142.09 13.3353 143.309 13.4755 144.517 13.7559C145.746 14.0147 146.76 14.3814 147.558 14.8559L145.876 18.4471C144.344 17.5843 142.673 17.1529 140.861 17.1529C139.783 17.1529 138.974 17.3039 138.435 17.6059C137.895 17.9078 137.626 18.2961 137.626 18.7706C137.626 19.3098 137.917 19.6873 138.499 19.9029C139.082 20.1186 140.009 20.3235 141.282 20.5176C142.705 20.7549 143.87 21.0137 144.776 21.2941C145.682 21.5529 146.469 22.0382 147.137 22.75C147.806 23.4618 148.14 24.4539 148.14 25.7265C148.14 26.8049 147.817 27.7647 147.17 28.6059C146.523 29.4471 145.574 30.1049 144.323 30.5794C143.093 31.0324 141.627 31.2588 139.923 31.2588Z" fill="#E87537"/>
</svg>
