<svg width="26" height="26" viewBox="0 0 26 26" fill="none" xmlns="http://www.w3.org/2000/svg">
<path d="M3.33533 24.8913C2.9538 24.8913 2.63587 24.7641 2.38152 24.5098C2.12717 24.2554 2 23.9375 2 23.556V18.4054C2 18.1299 2.09538 17.8808 2.28614 17.6583C2.4769 17.4357 2.72065 17.2821 3.01739 17.1973L7.40489 16.3071C7.70163 16.2647 8.00367 16.2912 8.31101 16.3865C8.61834 16.4819 8.86739 16.625 9.05815 16.8158L12.0467 19.8043C12.8522 19.338 13.6152 18.824 14.3359 18.2624C15.0565 17.7007 15.7454 17.0913 16.4024 16.4342C17.1019 15.756 17.7431 15.0512 18.326 14.32C18.9088 13.5887 19.4122 12.831 19.8361 12.0467L16.7522 8.93098C16.5826 8.76141 16.466 8.56005 16.4024 8.3269C16.3389 8.09375 16.3283 7.80761 16.3707 7.46848L17.1973 3.01739C17.2397 2.74185 17.3774 2.5034 17.6106 2.30204C17.8438 2.10068 18.1087 2 18.4054 2H23.556C23.9375 2 24.2554 2.12717 24.5098 2.38152C24.7641 2.63587 24.8913 2.9538 24.8913 3.33533C24.8913 5.98478 24.3137 8.60245 23.1586 11.1883C22.0034 13.7742 20.366 16.1269 18.2465 18.2465C16.1269 20.366 13.7742 22.0034 11.1883 23.1586C8.60245 24.3137 5.98478 24.8913 3.33533 24.8913Z" fill="#4BA3EF"/>
</svg>
