<svg width="26" height="26" viewBox="0 0 26 26" fill="none" xmlns="http://www.w3.org/2000/svg">
<path fill-rule="evenodd" clip-rule="evenodd" d="M18.2504 15.2388C17.9517 15.0896 16.5135 14.3749 16.2463 14.2885C15.9791 14.2021 15.7669 14.1393 15.5783 14.4378C15.2876 14.8383 14.9732 15.2153 14.6431 15.5844C14.4781 15.7886 14.3052 15.8043 14.0065 15.5844C12.309 14.9168 10.9023 13.6838 10.0063 12.0973C9.69199 11.579 10.305 11.6104 10.8708 10.4952C10.9101 10.4166 10.9337 10.3224 10.9337 10.236C10.9337 10.1496 10.9101 10.0554 10.8708 9.97683C10.8708 9.82761 10.2028 8.37467 9.96705 7.79349C9.73128 7.21231 9.49551 7.30656 9.29904 7.29085H8.71748C8.56816 7.29085 8.41884 7.33012 8.28524 7.39295C8.15164 7.45578 8.02589 7.55002 7.93159 7.65997C7.60151 7.98198 7.33431 8.37467 7.16927 8.80662C6.99637 9.23858 6.92564 9.70195 6.94922 10.1653C7.04353 11.2727 7.46005 12.333 8.15164 13.2126C9.41693 15.1053 11.1538 16.6447 13.1892 17.6656C14.258 18.2861 15.4997 18.5453 16.7257 18.4118C17.1344 18.3332 17.5195 18.1683 17.8653 17.9248C18.2032 17.6814 18.494 17.3751 18.7062 17.0138C18.9027 16.574 18.9655 16.087 18.8869 15.6158C18.7533 15.4666 18.5569 15.3959 18.2661 15.2467M12.9063 22.5821C11.1459 22.5821 9.42478 22.1109 7.91587 21.2155L7.56222 20.9956L3.86065 21.9774L4.84302 18.3725L4.60725 18.0034C3.34196 15.9614 2.87043 13.5346 3.27909 11.1706C3.68776 8.80662 4.95305 6.67826 6.83133 5.17819C8.70962 3.68598 11.0673 2.92417 13.4643 3.05768C15.8613 3.18334 18.1246 4.18862 19.8379 5.86932C21.7004 7.69139 22.7693 10.181 22.8086 12.7885C22.785 15.3959 21.7319 17.8855 19.8772 19.7233C18.0225 21.5611 15.5233 22.5899 12.9142 22.5899L12.9063 22.5821ZM21.2053 4.44779C20.1129 3.34827 18.8162 2.48436 17.3937 1.88747C15.9634 1.29844 14.4309 1 12.8827 1C10.8158 1 8.78821 1.54976 6.99637 2.5786C5.20453 3.6153 3.71919 5.09965 2.68181 6.88245C1.65229 8.67311 1.10217 10.6994 1.10217 12.7649C1.10217 14.8304 1.63657 16.8567 2.6661 18.6552L1 24.7576L7.24 23.124C8.96111 24.0822 10.9023 24.5926 12.867 24.6084C16.0027 24.6084 19.0048 23.3675 21.2368 21.1684C23.4609 18.9615 24.7261 15.9692 24.7576 12.8356C24.7497 11.2727 24.4275 9.72551 23.8224 8.28827C23.2094 6.85104 22.3292 5.54732 21.2132 4.44779H21.2053Z" fill="#4BA3EF"/>
</svg>
